<?xml version="1.0" ?><svg viewBox="0 0 32 32" xmlns="http://www.w3.org/2000/svg"><title/><g id="Professor"><path d="M28.5535,14.8507a12.1716,12.1716,0,0,0-2.4908-2.8137l3.5669-.5018-.4108-.7849c-.0433-.083-4.3957-8.1628-13.2269-4.1565C7.1583,2.5881,2.8242,10.6679,2.78,10.7509l-.4083.7843,3.5467.5a12.19,12.19,0,0,0-2.4871,2.7991l-.7093,1.1114,3.4925-.4119A6.3252,6.3252,0,0,0,6.131,19.58l.4816,1.7126.6958-1.6375a2.3356,2.3356,0,0,1,.3789-.5682,2.93,2.93,0,0,0,1.9832,2.59c.448,1.186,2.1588,4.8444,6.2182,4.8444h.1892c4.0613,0,5.7837-3.66,6.2348-4.8438a2.9293,2.9293,0,0,0,1.984-2.5906,2.3427,2.3427,0,0,1,.3793.5686l.6958,1.6375.4815-1.7126a6.3288,6.3288,0,0,0-.0805-4.0381l3.4893.4242Zm-6.8091,5.672-.3961.061-.1111.3845c-.0512.177-1.289,4.3024-5.1776,4.3024h-.1532c-3.8836,0-5.108-4.1235-5.1587-4.3005l-.11-.387-.3974-.06C8.9007,20.321,8.8444,18.6941,8.8751,18.05c.0269-.0192.0536-.0393.0806-.058q.0781-.0544.1559-.1065c.0653-.0439.13-.0869.1947-.1284q.0764-.049.1512-.0959.096-.06.1882-.1152c.047-.0283.094-.0565.1392-.0829.0595-.0348.1167-.0676.1725-.0992.0424-.024.0855-.0485.1254-.0706.0512-.0283.0984-.0537.1447-.0787.0376-.02.0774-.0418.1114-.06.0366-.0193.0674-.0352.0993-.0516.0341-.0176.0719-.0372.1-.0513l.0349-.0174c.0794-.04.1315-.0644.1337-.0655l.3528-.1648.008-.3894c.08-4,4.7277-4.0631,4.9231-4.0637.1977.0006,4.8455.0635,4.9255,4.0637l.0079.3894.3528.1648c.0021.001.0479.023.1136.0555l.0562.0279.0925.0475c.0349.0179.0692.0356.11.057.0287.0151.0623.0335.0936.05.0533.0286.1086.0585.1685.0917.0309.0171.0644.0363.0969.0546.066.0372.1342.0763.2056.1182.0349.0205.071.0422.107.0637q.1106.0662.2265.1388.0567.0355.1143.0726c.0765.049.1541.1005.2321.1532.0424.0286.0845.0572.1269.0867.03.02.0588.0427.0883.0636C23.14,18.6947,23.0834,20.321,21.7444,20.5227Zm2.2577-6.4563-.2551,1.22c1.0547.3155,1.1963,1.571,1.1255,2.5842-.1678-.1611-.3732-.3214-.5769-.4816l-.0023-.0177-.2017-.1525-.0058-.005a13.4186,13.4186,0,0,0-1.5565-1.0028c-.1449-.0805-.2744-.1492-.3826-.205-.3125-3.8678-4.1217-4.9048-6.1548-4.9048s-5.8423,1.037-6.1548,4.9048a13.8917,13.8917,0,0,0-1.9324,1.203L7.9,17.2122l-.0017.0011-.2087.1575-.0025.0187c-.2006.1582-.4037.3163-.5694.4745-.0665-1.0132.0781-2.2663,1.1194-2.5781l-.2527-1.2195L5.3266,14.38c.7953-.9491,1.9312-2.0294,2.8711-2.0294l.0873-1.2439-3.9142-.5524C5.619,8.77,9.2957,4.7866,15.7233,7.8469l.2686.1282.2685-.1282c6.4075-3.0512,10.1038.9241,11.3636,2.7081l-3.9252.5518.0873,1.2439c.94,0,2.0764,1.0858,2.8717,2.0392Z"/><path d="M18.5621,15.7467a2.1061,2.1061,0,0,0-2.0054,1.4856h-1.129a2.1112,2.1112,0,1,0,0,1.25h1.129a2.1061,2.1061,0,1,0,2.0054-2.7356Zm-5.14,2.9718a.8609.8609,0,1,1,.8612-.8612A.8621.8621,0,0,1,13.4217,18.7185Zm5.14,0a.8609.8609,0,1,1,.8606-.8612A.8621.8621,0,0,1,18.5621,18.7185Z"/><polygon points="14.354 21.373 13.387 22.622 14.376 23.388 14.967 22.623 17.018 22.623 17.609 23.388 18.598 22.622 17.631 21.373 14.354 21.373"/></g></svg>