<?xml version="1.0" ?>
<svg id="Line" style="enable-background:new 0 0 200 200;" version="1.1" viewBox="0 0 200 200" xml:space="preserve" xmlns="http://www.w3.org/2000/svg" xmlns:xlink="http://www.w3.org/1999/xlink">
  <!-- Graduation cap portion only -->
  <path fill="white" d="M80.7,107.6c5.7,1.4,11.9,1.1,17.7,1.1c5.9,0,12,0.3,17.8-1.1c3.6-0.9,0.1-6-1.2-7.4c11.4-1.3,12.2-3.6,12.6-4.8
    c0.6-1.7,0.3-3.6-0.7-5c-2.3-3.2-7.7-4.3-12.1-4.3c-5.2,0-12.6,2.7-15.7,3.9c-3.1-1.2-10.4-3.9-15.7-3.9c-4.3,0-9.8,1.1-12.1,4.3
    c-1.1,1.4-1.3,3.3-0.7,5c0.6,1.8,2.6,3.6,11.3,4.7c-0.5-0.1-1.9,2.5-2.1,2.9C79.2,104.4,78.4,107.1,80.7,107.6z M84,104.1
    c0.2-0.4,0.5-0.7,0.8-1c1.4-1.5,3.4-2.2,5.4-2.4c3.2-0.2,6.3-0.2,9.5-0.2c2.5,0,5.1-0.1,7.6,0.3c1.7,0.3,3.5,1,4.8,2.2
    c0.4,0.4,0.7,0.7,0.9,1c-1.3,0.1-3.1,0.2-5.4,0.3c-1.5,0.1-2.8,0.1-9.1,0.1c-6.4,0-7.7,0-9.3-0.1C87,104.3,85.2,104.2,84,104.1z
    M74.8,92.8c1.1-2.4,5.6-2.6,8.7-2.6c4,0,10.5,2.1,14.9,3.9c0.5,0.2,1.1,0.2,1.6,0c4.4-1.8,10.9-3.9,14.9-3.9c3.1,0,7.7,0.2,8.7,2.6
    c0.1,0.3,0.3,0.7,0.2,1.2c-0.5,2.2-6.8,2.4-16.6,2.7c-3.2,0.1-6.1,0.1-7.9,0.1c-2.3,0-5.1,0-8.1-0.1c-9.1-0.2-16-0.5-16.6-2.8
    C74.5,93.5,74.6,93.1,74.8,92.8z"/>
</svg>
