<svg width="200" height="200" viewBox="0 0 200 200" fill="none" xmlns="http://www.w3.org/2000/svg">
<path d="M80.7 107.6C86.4 109 92.6 108.7 98.4 108.7C104.3 108.7 110.4 109 116.2 107.6C119.8 106.7 116.3 101.6 115 100.2C126.4 98.9 127.2 96.6 127.6 95.4C128.2 93.7 127.9 91.8 126.9 90.4C124.6 87.2 119.2 86.1 114.8 86.1C109.6 86.1 102.2 88.8 99.1 90C96 88.8 88.7 86.1 83.4 86.1C79.1 86.1 73.6 87.2 71.3 90.4C70.2 91.8 70 93.7 70.6 95.4C71.2 97.2 73.2 99 81.9 100.1C81.4 100 80 102.6 79.8 103C79.2 104.4 78.4 107.1 80.7 107.6ZM84 104.1C84.2 103.7 84.5 103.4 84.8 103.1C86.2 101.6 88.2 100.9 90.2 100.7C93.4 100.5 96.5 100.5 99.7 100.5C102.2 100.5 104.8 100.4 107.3 100.8C109 101.1 110.8 101.8 112.1 103C112.5 103.4 112.8 103.7 113 104C111.7 104.1 109.9 104.2 107.6 104.3C106.1 104.4 104.8 104.4 98.5 104.4C92.1 104.4 90.8 104.4 89.2 104.3C87 104.3 85.2 104.2 84 104.1ZM74.8 92.8C75.9 90.4 80.4 90.2 83.5 90.2C87.5 90.2 94 92.3 98.4 94.1C98.9 94.3 99.5 94.3 100 94.1C104.4 92.3 110.9 90.2 114.9 90.2C118 90.2 122.6 90.4 123.6 92.8C123.7 93.1 123.9 93.5 123.8 94C123.3 96.2 117 96.4 107.2 96.7C104 96.8 101.1 96.8 99.3 96.8C97 96.8 94.2 96.8 91.2 96.7C82.1 96.5 75.2 96.2 74.6 93.9C74.5 93.5 74.6 93.1 74.8 92.8Z" fill="black"/>
<path d="M138.5 131.1C138.7 130.2 138.3 129.2 137.4 128.8L119.7 120.6V117.8C130.6 114 138.7 104.9 141.3 93.6C141.3 93.7 145.6 92.4 146.1 92.1C147.7 91.3 149 90.1 150.1 88.7C153.4 84.5 155.1 73.2 147.1 73.2H144.5C149.1 70.3 151.8 65.2 151.9 59.8V46.2C151.9 37.4 144.8 30.3 136 30.2C133.4 30.2 130.8 31 128.6 32.4C111.7 16.8 85.6 17 69.1 33C66.5 31.2 63.4 30.3 60.2 30.3C52.7 30.3 46.6 36.4 46.6 43.9V62.3C46.6 66.7 48.7 70.8 52.3 73.4H51.1C45.8 73.4 44.9 79 45.6 83.1C46 85.7 47.1 88 48.9 89.9C49.9 91 51.1 91.9 52.5 92.5C52.9 92.7 56.9 93.8 56.9 93.8C59.3 104.3 66.6 113.1 76.6 117.2V121.1L59.7 129C58.7 129.5 58.2 130.7 58.7 131.7V131.8C48.8 136 42.4 145.7 42.5 156.5V178.5C42.5 179.6 43.4 180.6 44.6 180.6H153.9C155 180.6 156 179.7 156 178.5V156.5C155.8 145.1 148.9 135.1 138.5 131.1ZM128 144.2L120.8 140.7C120 140.3 119 140.5 118.4 141.2L100.6 160.6V141.6L118.1 124.4L133.8 131.7L128 144.2ZM80.6 118.5C85.4 119.7 91.8 120.7 99.2 120.7C105.6 120.7 111.2 119.9 115.6 119C115.6 119.7 115.6 120.4 115.6 121.1L99 137.4H98.1C92.3 131.7 86.5 126 80.6 120.3C80.6 119.7 80.6 119.1 80.6 118.5ZM148.2 77.8C148.8 78.5 148.7 80 148.7 80.9C148.7 84.9 146 88.3 142.1 89.3V77.3H147C147.6 77.4 148 77.6 148.2 77.8ZM147.7 46.2V59.9C147.7 66.4 142.4 71.7 135.9 71.7C130.7 71.7 126.4 67.4 126.4 62.2V43.8C126.4 38.6 130.7 34.3 135.9 34.3C142.4 34.4 147.7 39.7 147.7 46.2ZM99.1 24.9C108.8 24.9 118.2 28.5 125.4 35.1C123.4 37.5 122.3 40.6 122.3 43.8V62.2C122.3 62.8 122.3 63.4 122.4 63.9C117.8 58.5 109.7 57.9 104.3 62.5C102 64.5 100.4 67.2 100 70.3H98.6C97.5 63.3 90.9 58.5 83.9 59.6C80.6 60.1 77.6 61.9 75.6 64.6C76.1 63 76.3 61.4 76.3 59.8V46.2C76.3 42.3 74.9 38.6 72.3 35.7C79.4 28.8 89.1 24.9 99.1 24.9ZM121.4 72.3C121.4 77.1 117.5 81.1 112.6 81.1C107.7 81.1 103.8 77.2 103.8 72.3C103.8 67.4 107.7 63.5 112.6 63.5C117.5 63.6 121.4 67.5 121.4 72.3ZM94.5 72.3C94.5 77.1 90.6 81.1 85.7 81.1C80.8 81.1 77 77.2 77 72.3C77 67.4 80.9 63.5 85.8 63.5C90.6 63.6 94.5 67.5 94.5 72.3ZM50.7 43.8C50.7 38.6 54.9 34.3 60.2 34.3C66.7 34.3 72 39.6 72 46.1V59.8C72 66.3 66.7 71.6 60.2 71.6C55.1 71.6 50.7 67.3 50.7 62.1V43.8ZM56 89.3C52.1 88.3 49.4 84.9 49.4 80.9V78.9C49.4 78 50.1 77.3 51 77.3H56V89.3ZM60.5 86.8C60.5 83.2 60.5 79.5 60.5 75.9C62 75.8 64.2 75.5 66.6 74.4C70.3 72.7 72.4 70.2 73.4 68.8C73.3 69.3 71.7 75.8 76.2 80.9C79.9 85 84.8 85.1 85.5 85.1C90.9 85.1 94.2 81.8 95.1 80.8C97.4 78.3 98.2 75.6 98.4 74.3H99.8C100.9 81.3 107.5 86.1 114.5 85.1C121.4 84 126.1 77.7 125.3 70.8C126.1 71.8 128.3 74.1 131.9 75.2C134.4 75.9 136.6 75.8 137.9 75.6V86.4C137.9 91 136.3 98.8 130.3 105.7C129 107.1 124.7 112 117.5 114.3C116 114.8 114.9 115 112.8 115.3C99.7 117.6 89.3 115.9 85.3 115.2C82.5 114.7 81.1 114.4 79.2 113.7C72.5 111.1 68.5 106.5 67.3 105C61.4 97.9 60.6 89.8 60.5 86.8ZM79 124.3L96.5 141.5V160.5C94.5 158.3 92.4 156.1 90.4 153.9C87.2 150.4 84 146.9 80.8 143.5C79.7 142.3 78.2 139.8 76.3 140.7L69.1 144.2L63.4 131.8L63.3 131.6L79 124.3ZM151.8 176.2H46.6V156.3C46.6 147.2 52 138.9 60.4 135.4L66.2 147.9C66.7 148.9 67.9 149.4 68.9 148.9L76.6 145.2C83 152.3 89.5 159.5 95.9 166.6C97.3 168.1 99.6 168.4 100.9 166.7C114.3 151.9 119.5 146 120.1 145.2C120.1 145.2 120.1 145.1 120.2 145.1L127.9 148.8C128.9 149.3 130.1 148.9 130.6 147.8L136.6 134.8C145.5 138.1 151.5 146.6 151.5 156.2L151.8 176.2Z" fill="black"/>
</svg>
