<?xml version="1.0" ?><svg id="Line" style="enable-background:new 0 0 200 200;" version="1.1" viewBox="0 0 200 200" xml:space="preserve" xmlns="http://www.w3.org/2000/svg" xmlns:xlink="http://www.w3.org/1999/xlink"><path fill="white" d="M80.7,107.6c5.7,1.4,11.9,1.1,17.7,1.1c5.9,0,12,0.3,17.8-1.1c3.6-0.9,0.1-6-1.2-7.4c11.4-1.3,12.2-3.6,12.6-4.8  c0.6-1.7,0.3-3.6-0.7-5c-2.3-3.2-7.7-4.3-12.1-4.3c-5.2,0-12.6,2.7-15.7,3.9c-3.1-1.2-10.4-3.9-15.7-3.9c-4.3,0-9.8,1.1-12.1,4.3  c-1.1,1.4-1.3,3.3-0.7,5c0.6,1.8,2.6,3.6,11.3,4.7c-0.5-0.1-1.9,2.5-2.1,2.9C79.2,104.4,78.4,107.1,80.7,107.6z M84,104.1  c0.2-0.4,0.5-0.7,0.8-1c1.4-1.5,3.4-2.2,5.4-2.4c3.2-0.2,6.3-0.2,9.5-0.2c2.5,0,5.1-0.1,7.6,0.3c1.7,0.3,3.5,1,4.8,2.2  c0.4,0.4,0.7,0.7,0.9,1c-1.3,0.1-3.1,0.2-5.4,0.3c-1.5,0.1-2.8,0.1-9.1,0.1c-6.4,0-7.7,0-9.3-0.1C87,104.3,85.2,104.2,84,104.1z   M74.8,92.8c1.1-2.4,5.6-2.6,8.7-2.6c4,0,10.5,2.1,14.9,3.9c0.5,0.2,1.1,0.2,1.6,0c4.4-1.8,10.9-3.9,14.9-3.9c3.1,0,7.7,0.2,8.7,2.6  c0.1,0.3,0.3,0.7,0.2,1.2c-0.5,2.2-6.8,2.4-16.6,2.7c-3.2,0.1-6.1,0.1-7.9,0.1c-2.3,0-5.1,0-8.1-0.1c-9.1-0.2-16-0.5-16.6-2.8  C74.5,93.5,74.6,93.1,74.8,92.8z"/><path fill="white" d="M138.5,131.1c0.2-0.9-0.2-1.9-1.1-2.3l-17.7-8.2v-2.8c10.9-3.8,19-12.9,21.6-24.2c0,0.1,4.3-1.2,4.8-1.5  c1.6-0.8,2.9-2,4-3.4c3.3-4.2,5-15.5-3-15.5c0,0-2.6,0-2.6,0c4.6-2.9,7.3-8,7.4-13.4V46.2c0-8.8-7.1-15.9-15.9-16  c-2.6,0-5.2,0.8-7.4,2.2C111.7,16.8,85.6,17,69.1,33c-2.6-1.8-5.7-2.7-8.9-2.7c-7.5,0-13.6,6.1-13.6,13.6v18.4  c0,4.4,2.1,8.5,5.7,11.1c0,0-1.2,0-1.2,0c-5.3,0-6.2,5.6-5.5,9.7c0.4,2.6,1.5,4.9,3.3,6.8c1,1.1,2.2,2,3.6,2.6  c0.4,0.2,4.4,1.3,4.4,1.3c2.4,10.5,9.7,19.3,19.7,23.4v3.9l-16.9,7.9c-1,0.5-1.5,1.7-1,2.7l0,0.1c-9.9,4.2-16.3,13.9-16.2,24.7v22  c0,1.1,0.9,2.1,2.1,2.1h109.3c1.1,0,2.1-0.9,2.1-2.1v-22C155.8,145.1,148.9,135.1,138.5,131.1z M128,144.2l-7.2-3.5  c-0.8-0.4-1.8-0.2-2.4,0.5l-17.8,19.4v-19l17.5-17.2l15.7,7.3L128,144.2z M80.6,118.5c4.8,1.2,11.2,2.2,18.6,2.2  c6.4,0,12-0.8,16.4-1.7c0,0.7,0,1.4,0,2.1L99,137.4h-0.9c-5.8-5.7-11.6-11.4-17.5-17.1C80.6,119.7,80.6,119.1,80.6,118.5z   M148.2,77.8c0.6,0.7,0.5,2.2,0.5,3.1c0,4-2.7,7.4-6.6,8.4v-12c0,0,4.9,0,4.9,0C147.6,77.4,148,77.6,148.2,77.8z M147.7,46.2v13.7  c0,6.5-5.3,11.8-11.8,11.8c-5.2,0-9.5-4.3-9.5-9.5V43.8c0-5.2,4.3-9.5,9.5-9.5C142.4,34.4,147.7,39.7,147.7,46.2z M99.1,24.9  c9.7,0,19.1,3.6,26.3,10.2c-2,2.4-3.1,5.5-3.1,8.7v18.4c0,0.6,0,1.2,0.1,1.7c-4.6-5.4-12.7-6-18.1-1.4c-2.3,2-3.9,4.7-4.3,7.8h-1.4  c-1.1-7-7.7-11.8-14.7-10.7c-3.3,0.5-6.3,2.3-8.3,5c0.5-1.6,0.7-3.2,0.7-4.8V46.2c0-3.9-1.4-7.6-4-10.5  C79.4,28.8,89.1,24.9,99.1,24.9z M121.4,72.3c0,4.8-3.9,8.8-8.8,8.8s-8.8-3.9-8.8-8.8s3.9-8.8,8.8-8.8l0,0  C117.5,63.6,121.4,67.5,121.4,72.3L121.4,72.3z M94.5,72.3c0,4.8-3.9,8.8-8.8,8.8S77,77.2,77,72.3s3.9-8.8,8.8-8.8l0,0  C90.6,63.6,94.5,67.5,94.5,72.3L94.5,72.3z M50.7,43.8c0-5.2,4.2-9.5,9.5-9.5c6.5,0,11.8,5.3,11.8,11.8v13.7  c0,6.5-5.3,11.8-11.8,11.8c-5.1,0-9.5-4.3-9.5-9.5L50.7,43.8z M56,89.3c-3.9-1-6.6-4.4-6.6-8.4v-2c0-0.9,0.7-1.6,1.6-1.6l0,0H56  L56,89.3L56,89.3z M60.5,86.8c0-3.6,0-7.3,0-10.9c1.5-0.1,3.7-0.4,6.1-1.5c3.7-1.7,5.8-4.2,6.8-5.6c-0.1,0.5-1.7,7,2.8,12.1  c3.7,4.1,8.6,4.2,9.3,4.2c5.4,0,8.7-3.3,9.6-4.3c2.3-2.5,3.1-5.2,3.3-6.5h1.4c1.1,7,7.7,11.8,14.7,10.8c6.9-1.1,11.6-7.4,10.8-14.3  c0.8,1,3,3.3,6.6,4.4c2.5,0.7,4.7,0.6,6,0.4c0,0,0,10.8,0,10.8c0,4.6-1.6,12.4-7.6,19.3c-1.3,1.4-5.6,6.3-12.8,8.6  c-1.5,0.5-2.6,0.7-4.7,1c-13.1,2.3-23.5,0.6-27.5-0.1c-2.8-0.5-4.2-0.8-6.1-1.5c-6.7-2.6-10.7-7.2-11.9-8.7  C61.4,97.9,60.6,89.8,60.5,86.8z M79,124.3l17.5,17.2c0,0,0,19,0,19c-2-2.2-4.1-4.4-6.1-6.6c-3.2-3.5-6.4-7-9.6-10.4  c-1.1-1.2-2.6-3.7-4.5-2.8l-7.2,3.5l-5.7-12.4l-0.1-0.2L79,124.3z M151.8,176.2H46.6v-19.9c0-9.1,5.4-17.4,13.8-20.9l5.8,12.5  c0.5,1,1.7,1.5,2.7,1c0,0,0,0,0,0c0,0,7.7-3.7,7.7-3.7c6.4,7.1,12.9,14.3,19.3,21.4c1.4,1.5,3.7,1.8,5,0.1  c13.4-14.8,18.6-20.7,19.2-21.5c0,0,0-0.1,0.1-0.1c0,0,7.7,3.7,7.7,3.7c1,0.5,2.2,0.1,2.7-1c0,0,0,0,0,0l6-13  c8.9,3.3,14.9,11.8,14.9,21.4L151.8,176.2z"/></svg>