<svg width="200" height="200" viewBox="0 0 200 200" fill="none" xmlns="http://www.w3.org/2000/svg">
<path d="M80.7 107.6C86.4 109 92.6 108.7 98.4 108.7C104.3 108.7 110.4 109 116.2 107.6C119.8 106.7 116.3 101.6 115 100.2C126.4 98.9 127.2 96.6 127.6 95.4C128.2 93.7 127.9 91.8 126.9 90.4C124.6 87.2 119.2 86.1 114.8 86.1C109.6 86.1 102.2 88.8 99.1 90C96 88.8 88.7 86.1 83.4 86.1C79.1 86.1 73.6 87.2 71.3 90.4C70.2 91.8 70 93.7 70.6 95.4C71.2 97.2 73.2 99 81.9 100.1C81.4 100 80 102.6 79.8 103C79.2 104.4 78.4 107.1 80.7 107.6ZM84 104.1C84.2 103.7 84.5 103.4 84.8 103.1C86.2 101.6 88.2 100.9 90.2 100.7C93.4 100.5 96.5 100.5 99.7 100.5C102.2 100.5 104.8 100.4 107.3 100.8C109 101.1 110.8 101.8 112.1 103C112.5 103.4 112.8 103.7 113 104C111.7 104.1 109.9 104.2 107.6 104.3C106.1 104.4 104.8 104.4 98.5 104.4C92.1 104.4 90.8 104.4 89.2 104.3C87 104.3 85.2 104.2 84 104.1ZM74.8 92.8C75.9 90.4 80.4 90.2 83.5 90.2C87.5 90.2 94 92.3 98.4 94.1C98.9 94.3 99.5 94.3 100 94.1C104.4 92.3 110.9 90.2 114.9 90.2C118 90.2 122.6 90.4 123.6 92.8C123.7 93.1 123.9 93.5 123.8 94C123.3 96.2 117 96.4 107.2 96.7C104 96.8 101.1 96.8 99.3 96.8C97 96.8 94.2 96.8 91.2 96.7C82.1 96.5 75.2 96.2 74.6 93.9C74.5 93.5 74.6 93.1 74.8 92.8Z" fill="black"/>
</svg>
